<mxfile host="app.diagrams.net" modified="2024-04-21T20:41:30.035Z" agent="Mozilla/5.0 (Windows NT 10.0; Win64; x64) AppleWebKit/537.36 (KHTML, like Gecko) Chrome/123.0.0.0 Safari/537.36" version="24.2.7" etag="BR4H9f7lRbb95Ik73t17" type="github">
  <diagram name="Pagina-1" id="3NaCEifzKMaEFM4cfICQ">
    <mxGraphModel>
      <root>
        <mxCell id="0" />
        <mxCell id="1" parent="0" />
      </root>
    </mxGraphModel>
  </diagram>
</mxfile>
